# xmcd
# Copyright (C) 1995-1998 Ti Kan
#
# Track frame offsets:
#       150
#       11785
#       21581
#       33599
#       45749
#       62679
#       75304
#       89574
#       103857
#       117692
#
# Disc length: 1748 seconds
#
# Revision: 10
# Processed by: cddbd v1.5.2PL0 Copyright (c) Steve Scherf et al.
# Submitted via: CD-Import v1.0
#
DISCID=8706d20a
DTITLE=Chet Baker - Various Jazz
DYEAR=1900
DGENRE=
TTITLE0=Bye Bye Blackbird
TTITLE1=I Say Alittle Prayer For You
TTITLE2=Caravan
TTITLE3=Little Old Money Maker
TTITLE4=So Danco Samba
TTITLE5=Prelude To A Kiss
TTITLE6=It's Only A Papermoon
TTITLE7=5 O'clock Whistle
TTITLE8=Pyramid
TTITLE9=I Get Allong Without You Verry Well
EXTD=
EXTT0=
EXTT1=
EXTT2=
EXTT3=
EXTT4=
EXTT5=
EXTT6=
EXTT7=
EXTT8=
EXTT9=
PLAYORDER=
